# xmcd
#
# Track frame offsets: 
#        150
#        16001
#        37633
#        59084
#        74414
#        89296
#        104917
#        121080
#        136984
#        151416
#        172092
#        185922
#        201545
#        219752
#        233964
#        254074
#        276012
#        292520
#        312961
#        330584
#
# Disc length: 4650 seconds
#
# Revision: 0
# Processed by: cddbd v1.5.2PL0 Copyright (c) Steve Scherf et al.
# Submitted via: ExactAudioCopy v1.0b3
#
DISCID=29122814
DTITLE=Van McCoy - The Hustle (SHM_CD)
DYEAR=2009
DGENRE=Disco
TTITLE0=The Hustle
TTITLE1=Earthquake
TTITLE2=Theme From Star Trek
TTITLE3=Love Is The Answer
TTITLE4=Back Stabbers
TTITLE5=Soul Cha Cha
TTITLE6=Disco Baby
TTITLE7=You Are The Sunshine Of My Life
TTITLE8=Doctor's Orders
TTITLE9=A Rainy Night In Georgia
TTITLE10=African Symphony
TTITLE11=The Disco Kid
TTITLE12=Keep On Hustlin'
TTITLE13=The Shuffle
TTITLE14=That's My Philosophy
TTITLE15=Pick Up The Pieces
TTITLE16=Killing Me Softly
TTITLE17=Love At First Sight
TTITLE18=Touch Me In The Morning
TTITLE19=Good Night Baby
EXTD=
EXTT0=
EXTT1=
EXTT2=
EXTT3=
EXTT4=
EXTT5=
EXTT6=
EXTT7=
EXTT8=
EXTT9=
EXTT10=
EXTT11=
EXTT12=
EXTT13=
EXTT14=
EXTT15=
EXTT16=
EXTT17=
EXTT18=
EXTT19=
PLAYORDER=
